<?xml version="1.0" standalone="no"?><!-- Generator: Adobe Fireworks CS6, Export SVG Extension by Aaron Beall (http://fireworks.abeall.com) . Version: 0.6.1  --><!DOCTYPE svg PUBLIC "-//W3C//DTD SVG 1.1//EN" "http://www.w3.org/Graphics/SVG/1.1/DTD/svg11.dtd"><svg id="Untitled-%u30DA%u30FC%u30B8%201" viewBox="0 0 240 180" style="background-color:#ffffff00" version="1.1"	xmlns="http://www.w3.org/2000/svg" xmlns:xlink="http://www.w3.org/1999/xlink" xml:space="preserve"	x="0px" y="0px" width="240px" height="180px">	<g id="%u30EC%u30A4%u30E4%u30FC%201">		<text visibility="hidden" x="80" y="67" width="78" fill="#ffffff" style="font-size: 24px; color: #ffffff; font-family: Avenir; text-align: center; "><tspan><![CDATA[POINT]]></tspan></text>		<g>			<path d="M 77.5 85 L 101.5 85 L 104.8333 76 L 135 76 L 139.5 85 L 162.5 85 L 162.5 141 L 77.5 141 L 77.5 85 Z" stroke="#ffffff" stroke-width="4" fill="none"/>			<path id="%u6955%u5186%u5F62" d="M 100 112.5 C 100 101.4542 108.9542 92.5 120 92.5 C 131.0458 92.5 140 101.4542 140 112.5 C 140 123.5458 131.0458 132.5 120 132.5 C 108.9542 132.5 100 123.5458 100 112.5 Z" stroke="#ffffff" stroke-width="2" fill="none"/>			<path d="M 98.5 75 L 96.5 80 L 79.5 80 L 79.5 75 L 98.5 75 Z" fill="#ffffff"/>		</g>		<text x="85" y="67" width="68" fill="#ffffff" style="font-size: 24px; color: #ffffff; font-family: Avenir; text-align: center; "><tspan><![CDATA[SNAP]]></tspan></text>	</g>	<g id="Web%20%u30EC%u30A4%u30E4%u30FC">	</g></svg>